<?xml version="1.0" standalone="no"?>
<!DOCTYPE svg PUBLIC "-//W3C//DTD SVG 20010904//EN"
 "http://www.w3.org/TR/2001/REC-SVG-20010904/DTD/svg10.dtd">
<svg version="1.0" xmlns="http://www.w3.org/2000/svg"
 width="1500.000000pt" height="1500.000000pt" viewBox="0 0 1500.000000 1500.000000"
 preserveAspectRatio="xMidYMid meet">
<metadata>
Created by potrace 1.14, written by Peter Selinger 2001-2017
</metadata>
<g transform="translate(0.000000,1500.000000) scale(0.100000,-0.100000)"
fill="#000000" stroke="none">
<path d="M0 7500 l0 -7500 7500 0 7500 0 0 7500 0 7500 -7500 0 -7500 0 0
-7500z m8055 4990 c1020 -68 1700 -286 2312 -744 547 -408 935 -1012 1176
-1826 190 -643 267 -1252 267 -2120 0 -939 -79 -1636 -265 -2355 -212 -819
-527 -1439 -960 -1884 -540 -555 -1269 -903 -2110 -1006 -414 -51 -301 -48
-2434 -52 -2175 -4 -2116 -5 -2317 52 -346 100 -493 282 -534 657 -14 135 -14
8431 0 8566 6 53 20 133 30 177 62 251 229 413 506 490 191 54 138 53 2234 54
1187 0 2003 -3 2095 -9z"/>
<path d="M7240 7500 l0 -4040 270 0 270 0 0 4040 0 4040 -270 0 -270 0 0
-4040z"/>
<path d="M8380 7497 l0 -4035 78 4 c545 34 948 211 1317 579 480 479 796 1215
949 2215 144 936 136 2050 -19 2897 -84 455 -182 767 -345 1098 -143 289 -290
496 -492 691 -383 369 -796 541 -1385 580 l-103 6 0 -4035z"/>
</g>
</svg>
